<svg width="106" height="107" viewBox="0 0 106 107" fill="none" xmlns="http://www.w3.org/2000/svg">
<g filter="url(#filter0_d)">
<g filter="url(#filter1_di)">
<path d="M93.7542 5.1961C95.6742 5.1961 97.1742 5.6881 98.2542 6.6721C99.3582 7.6561 99.9102 9.0601 99.9102 10.8841V11.0641C99.9102 12.1201 99.7062 13.0441 99.2982 13.8361C98.9142 14.6281 98.3382 15.2521 97.5702 15.7081C98.6022 16.1881 99.3942 16.8601 99.9462 17.7241C100.498 18.5881 100.774 19.6321 100.774 20.8561V21.3961C100.774 23.3881 100.162 24.9361 98.9382 26.0401C97.7382 27.1441 96.0102 27.6961 93.7542 27.6961C91.4982 27.6961 89.7582 27.1441 88.5342 26.0401C87.3342 24.9361 86.7342 23.3881 86.7342 21.3961V20.8561C86.7342 18.3601 87.8022 16.6441 89.9382 15.7081C89.1702 15.2521 88.5822 14.6281 88.1742 13.8361C87.7902 13.0441 87.5982 12.1201 87.5982 11.0641V10.8841C87.5982 9.0841 88.1382 7.6921 89.2182 6.7081C90.3222 5.7001 91.8342 5.1961 93.7542 5.1961ZM93.7542 7.5721C91.6422 7.5721 90.5862 8.6161 90.5862 10.7041V11.3881C90.5862 12.5161 90.8262 13.3321 91.3062 13.8361C91.7862 14.3161 92.6022 14.5561 93.7542 14.5561C94.9062 14.5561 95.7222 14.3161 96.2022 13.8361C96.6822 13.3321 96.9222 12.5161 96.9222 11.3881V10.7041C96.9222 9.6241 96.6582 8.8321 96.1302 8.3281C95.6262 7.8241 94.8342 7.5721 93.7542 7.5721ZM93.7542 16.9321C92.5062 16.9321 91.5342 17.2681 90.8382 17.9401C90.1422 18.6121 89.7942 19.5601 89.7942 20.7841V21.6841C89.7942 22.7401 90.1302 23.5801 90.8022 24.2041C91.4982 24.8281 92.4822 25.1401 93.7542 25.1401C95.0262 25.1401 95.9982 24.8281 96.6702 24.2041C97.3662 23.5801 97.7142 22.7401 97.7142 21.6841V20.7841C97.7142 19.5601 97.3662 18.6121 96.6702 17.9401C95.9742 17.2681 95.0022 16.9321 93.7542 16.9321Z" fill="#120635"/>
</g>
<g filter="url(#filter2_di)">
<path d="M80.4846 22.959L79.2014 26.8438L76.5646 29.463L72.6799 30.7637H68.8303L64.9455 29.463L63.5744 28.127L62.2736 25.5079V24.0665L63.8205 22.5196L65.4728 24.1719L64.0314 25.6485L63.6096 25.2266L64.6818 24.1719L63.8205 23.3106L62.8537 24.2774V25.3672L64.0666 27.7755L65.2267 28.9708L68.9006 30.1837H72.5744L74.9826 28.9708L77.426 26.545L78.6564 22.8712V20.4278L77.426 16.754L74.9826 14.3458L72.5744 13.1153H68.9006L65.2267 14.3458L62.0978 17.4747L64.8224 3.72858H77.6896L77.7599 4.30865L71.4142 5.5567H65.0861L63.0295 15.752L64.9455 13.836L68.8303 12.5528H72.6799L76.5646 13.836L79.2014 16.4727L80.4846 20.3575V22.959Z" fill="#120635"/>
</g>
<g filter="url(#filter3_di)">
<path d="M32.9924 79.3132C33.5795 80.82 33.9949 82.3346 34.2385 83.8568C34.4892 85.3653 34.5682 86.8334 34.4754 88.2613C34.3827 89.6891 34.121 91.052 33.6904 92.3498C33.2599 93.6475 32.6626 94.8377 31.8985 95.9204L25.306 97.5983C25.8328 96.9962 26.3178 96.3506 26.7609 95.6618C27.204 94.9729 27.5982 94.2544 27.9434 93.5065C28.2999 92.7556 28.5983 91.9836 28.8384 91.1903C29.0786 90.397 29.2535 89.5964 29.3631 88.7884C28.9868 89.2322 28.5594 89.6411 28.0809 90.0149C27.5981 90.3778 27.0558 90.6359 26.4539 90.7891C25.0684 91.1417 23.7397 91.2398 22.468 91.0835C21.1919 90.9162 20.009 90.5391 18.919 89.9524C17.8362 89.3519 16.8719 88.5591 16.0263 87.5741C15.192 86.5863 14.5217 85.4427 14.0154 84.1433C13.5219 82.8767 13.2888 81.6218 13.3163 80.3786C13.3508 79.1216 13.6187 77.9672 14.1202 76.9154C14.6174 75.8527 15.3381 74.9311 16.2823 74.1507C17.2265 73.3703 18.363 72.811 19.6917 72.4728C21.0318 72.1317 22.3824 72.058 23.7436 72.2516C25.1161 72.4424 26.4056 72.8523 27.6119 73.4814C28.8139 74.0996 29.8861 74.9129 30.8282 75.9213C31.7775 76.9159 32.4989 78.0465 32.9924 79.3132ZM27.7627 80.6443C27.5287 80.0437 27.1953 79.4925 26.7625 78.9905C26.3298 78.4885 25.8317 78.0752 25.2683 77.7505C24.7162 77.423 24.1187 77.203 23.4757 77.0906C22.8328 76.9782 22.1819 77.0058 21.5233 77.1735C20.8532 77.344 20.2946 77.6243 19.8473 78.0141C19.4071 78.3902 19.0748 78.8349 18.8504 79.3481C18.6259 79.8613 18.52 80.4223 18.5325 81.0312C18.5451 81.6401 18.6747 82.2613 18.9215 82.8946C19.164 83.517 19.496 84.0806 19.9174 84.5854C20.3345 85.0794 20.817 85.4846 21.3648 85.8013C21.9126 86.1179 22.5002 86.3285 23.1275 86.4328C23.7662 86.5343 24.4206 86.4998 25.0907 86.3292C25.7607 86.1587 26.3215 85.8839 26.773 85.5049C27.2359 85.1231 27.5796 84.6756 27.804 84.1623C28.0285 83.6491 28.1365 83.0935 28.1282 82.4956C28.127 81.8838 28.0052 81.2667 27.7627 80.6443Z" fill="#120635"/>
</g>
<g filter="url(#filter4_di)">
<path d="M70.5279 93.9253L69.9875 93.7145L83.2115 71.5762L78.4111 73.2573L75.3966 73.4022L75.3706 72.8711L78.345 72.6919L83.871 70.8101L84.2476 70.9571L70.5279 93.9253Z" fill="#120635"/>
</g>
<g filter="url(#filter5_di)">
<path d="M88.8942 75.3304L88.2462 74.9704L98.4342 58.9504H89.1822L87.8502 61.6504L87.2022 61.3984L90.1182 55.4224H101.602L88.8942 75.3304Z" fill="#120635"/>
</g>
<g filter="url(#filter6_di)">
<path d="M48.1275 30.2566L32.2454 24.8736L33.3222 22.7984L46.2463 16.9046C48.1747 16.0049 49.5852 15.2231 50.4777 14.5593C51.3868 13.8889 52.0706 13.1117 52.5294 12.2275C53.1447 11.0417 53.2664 9.93931 52.8946 8.92041C52.5228 7.90151 51.6987 7.17576 50.4223 6.74317C48.8907 6.22405 47.4845 6.23055 46.2035 6.76265C44.939 7.28811 43.929 8.27898 43.1734 9.73525L40.0935 8.69137C41.1784 6.60058 42.7712 5.1529 44.8722 4.34832C46.9843 3.5475 49.2445 3.55523 51.6529 4.37152C53.9059 5.13515 55.3985 6.29541 56.1306 7.8523C56.8682 9.39878 56.7593 11.0926 55.804 12.9337C54.6436 15.1702 51.7415 17.3177 47.0975 19.3764L37.1804 23.7758L49.35 27.9005L48.1275 30.2566Z" fill="#120635"/>
</g>
<g filter="url(#filter7_di)">
<path d="M44.1959 77.8816L43.3162 74.7633L58.1858 72.0231C57.9201 74.1618 57.6683 76.2616 57.4302 78.3223C57.1921 80.383 56.9626 82.43 56.7417 84.4632C56.5142 86.4734 56.2867 88.4835 56.0592 90.4937C55.8317 92.5039 55.6075 94.5256 55.3865 96.5588L51.7045 97.2373C52.0547 93.9896 52.4267 90.5556 52.8207 86.9353C53.2082 83.2919 53.6022 79.6716 54.0028 76.0744L44.1959 77.8816Z" fill="#120635"/>
</g>
<g filter="url(#filter8_di)">
<path d="M60.0093 39.2709C60.2193 39.2709 60.3243 39.3525 60.3243 39.5159C60.3243 39.6792 60.126 39.8542 59.7293 40.0409C58.5393 40.5542 57.2793 41.1842 55.9493 41.9309C52.8693 43.6109 50.221 45.5125 48.0043 47.6359C45.0177 50.5059 43.5243 53.2475 43.5243 55.8609C43.5243 56.3975 43.606 56.8409 43.7693 57.1909C44.866 55.1842 46.5693 53.3642 48.8793 51.7309C51.1893 50.0742 53.441 49.2459 55.6343 49.2459C57.851 49.2459 58.9593 50.1559 58.9593 51.9759C58.9593 53.5859 57.9793 55.0675 56.0193 56.4209C54.526 57.4942 52.916 58.2642 51.1893 58.7309C49.486 59.1975 48.0627 59.4309 46.9193 59.4309C45.776 59.4309 44.8193 59.2909 44.0493 59.0109L43.9093 60.1309C43.816 60.6442 43.6293 60.9009 43.3493 60.9009C43.116 60.9009 42.9993 60.6325 42.9993 60.0959C42.9993 59.5592 43.0693 59.0575 43.2093 58.5909C42.206 58.0075 41.7043 57.0975 41.7043 55.8609C41.7043 52.8275 43.9793 49.5025 48.5293 45.8859C52.076 43.0625 55.7627 40.8809 59.5893 39.3409C59.6827 39.2942 59.8227 39.2709 60.0093 39.2709ZM57.2443 51.9759C57.2443 50.8092 56.4627 50.2259 54.8993 50.2259C52.8927 50.2259 50.8393 51.0425 48.7393 52.6759C46.6627 54.2859 45.216 56.0709 44.3993 58.0309C44.9827 58.5442 45.811 58.8009 46.8843 58.8009C47.981 58.8009 49.2293 58.5675 50.6293 58.1009C52.0527 57.6342 53.4177 56.8875 54.7243 55.8609C56.4043 54.5542 57.2443 53.2592 57.2443 51.9759Z" fill="#120635"/>
</g>
<g filter="url(#filter9_di)">
<path d="M27.2009 7.09115C27.2009 9.28449 25.0659 10.7778 20.7959 11.5712C24.7393 12.2945 26.7109 13.8578 26.7109 16.2612C26.7109 18.8278 24.9959 20.8228 21.5659 22.2462C18.9059 23.3662 16.0826 23.9262 13.0959 23.9262C11.0893 23.9262 9.35093 23.6462 7.88093 23.0862C5.78093 22.3162 4.73093 21.1145 4.73093 19.4812C4.73093 18.5012 5.1626 17.7312 6.02593 17.1712C6.9126 16.6112 7.86926 16.3312 8.89593 16.3312C9.94593 16.3312 10.4709 16.4828 10.4709 16.7862C10.4709 16.9262 10.1326 16.9962 9.45593 16.9962C8.8026 16.9962 8.1376 17.1478 7.46093 17.4512C6.5276 17.8245 6.06093 18.4312 6.06093 19.2712C6.06093 20.7412 6.7726 21.8378 8.19593 22.5612C9.3626 23.1678 10.7159 23.4712 12.2559 23.4712C14.9393 23.4712 17.5293 22.9228 20.0259 21.8262C23.1993 20.4262 24.7859 18.5828 24.7859 16.2962C24.7859 14.7795 23.7359 13.6945 21.6359 13.0412C20.1893 12.5745 18.5209 12.3412 16.6309 12.3412C16.3043 12.3412 16.1409 12.1778 16.1409 11.8512C16.1409 11.5012 16.3626 11.2562 16.8059 11.1162C17.7393 10.9995 18.6959 10.8595 19.6759 10.6962C20.6793 10.5095 21.9159 10.0778 23.3859 9.40115C25.2993 8.53782 26.2559 7.60449 26.2559 6.60115C26.2559 5.90115 25.4859 5.37615 23.9459 5.02615C22.9426 4.79282 21.8459 4.67615 20.6559 4.67615C19.4659 4.67615 18.3226 4.85115 17.2259 5.20115C15.7093 5.69115 14.9509 6.41449 14.9509 7.37115C14.9509 7.76782 14.7993 7.96615 14.4959 7.96615C14.0759 7.96615 13.8659 7.62782 13.8659 6.95115C13.8659 5.94782 14.7993 5.14282 16.6659 4.53615C18.0659 4.09282 19.4309 3.87115 20.7609 3.87115C22.1143 3.87115 23.4326 4.09282 24.7159 4.53615C26.3726 5.14282 27.2009 5.99449 27.2009 7.09115Z" fill="#120635"/>
</g>
<g filter="url(#filter10_di)">
<path d="M95.4921 87.9202C98.2281 88.1362 99.5961 89.5042 99.5961 92.0242C99.5961 93.9922 98.7561 95.6242 97.0761 96.9202C95.4201 98.2402 93.5481 98.9002 91.4601 98.9002C88.7721 98.9002 87.4281 97.7842 87.4281 95.5522L88.1841 95.5882C88.1841 96.5002 88.4961 97.1602 89.1201 97.5682C89.7681 97.9762 90.5481 98.1802 91.4601 98.1802C93.0201 98.1802 94.2201 97.6282 95.0601 96.5242C95.9241 95.4442 96.3561 94.0162 96.3561 92.2402C96.3561 91.1362 96.1761 90.2722 95.8161 89.6482C95.4801 89.0002 95.0241 88.6762 94.4481 88.6762L93.4401 88.7482L93.2241 88.0282C94.1361 87.7162 94.8201 87.4642 95.2761 87.2722C95.7561 87.0562 96.2481 86.7562 96.7521 86.3722C97.6401 85.6282 98.0841 84.4282 98.0841 82.7722C98.0841 81.9082 97.8321 81.2602 97.3281 80.8282C96.8241 80.3962 96.2841 80.1802 95.7081 80.1802C95.6601 80.1802 95.6241 80.1802 95.6001 80.1802C95.0481 80.1802 94.4721 80.3962 93.8721 80.8282C93.2961 81.2362 92.8641 81.6082 92.5761 81.9442C92.3121 82.2802 92.1561 82.5082 92.1081 82.6282L91.4961 82.3042C91.6641 81.9682 91.9521 81.5842 92.3601 81.1522C92.7921 80.7202 93.2361 80.3482 93.6921 80.0362C94.8441 79.2922 96.1041 78.9202 97.4721 78.9202C100.064 78.9202 101.36 79.9162 101.36 81.9082C101.36 83.2282 100.772 84.4042 99.5961 85.4362C98.4441 86.4442 97.0761 87.2722 95.4921 87.9202Z" fill="#120635"/>
</g>
<g filter="url(#filter11_di)">
<path d="M15.7408 62.8229C13.2688 62.8229 11.3968 61.9229 10.1248 60.1229C8.87677 58.2989 8.25277 55.6589 8.25277 52.2029C8.25277 48.9149 8.88877 46.3589 10.1608 44.5349C11.4328 42.7109 13.2928 41.7989 15.7408 41.7989C18.1888 41.7989 20.0488 42.7109 21.3208 44.5349C22.5928 46.3589 23.2288 48.9149 23.2288 52.2029C23.2288 55.6589 22.5928 58.2989 21.3208 60.1229C20.0728 61.9229 18.2128 62.8229 15.7408 62.8229ZM15.7408 60.9149C17.3008 60.9149 18.4888 60.1709 19.3048 58.6829C20.1448 57.1949 20.5648 55.0349 20.5648 52.2029C20.5648 49.4429 20.1448 47.3429 19.3048 45.9029C18.4888 44.4389 17.3008 43.7069 15.7408 43.7069C14.1808 43.7069 12.9808 44.4389 12.1408 45.9029C11.3248 47.3429 10.9168 49.4429 10.9168 52.2029C10.9168 55.0349 11.3248 57.1949 12.1408 58.6829C12.9808 60.1709 14.1808 60.9149 15.7408 60.9149Z" fill="#120635"/>
</g>
<g filter="url(#filter12_di)">
<path d="M82.6434 49.0735L84.7357 49.6677C84.9281 49.7224 85.0618 49.829 85.1369 49.9877C85.212 50.1464 85.213 50.3099 85.1399 50.478L83.6545 53.894C83.5814 54.0622 83.4542 54.1892 83.2728 54.275C83.0913 54.3609 82.9124 54.3787 82.7361 54.3286L80.6198 53.7275L79.7725 55.6763C79.6994 55.8444 79.5721 55.9714 79.3907 56.0573C79.2092 56.1431 79.0303 56.161 78.854 56.1109L74.3809 54.8404C74.2046 54.7903 74.0788 54.6859 74.0037 54.5272C73.9286 54.3685 73.9276 54.2051 74.0008 54.037L74.8481 52.0882L67.6575 50.0458C67.4812 49.9958 67.3554 49.8914 67.2803 49.7326C67.2052 49.5739 67.2042 49.4105 67.2773 49.2424L68.7029 45.9639C68.8158 45.7041 69.007 45.4922 69.2764 45.3283L79.7706 38.7786C80.1081 38.5825 80.4611 38.5368 80.8299 38.6415L85.832 40.0623C86.0084 40.1124 86.1341 40.2168 86.2092 40.3755C86.2843 40.5342 86.2853 40.6976 86.2122 40.8658L82.6434 49.0735ZM76.9304 47.7341L78.3659 44.4327L74.4053 47.0169L76.9304 47.7341Z" fill="#120635"/>
</g>
</g>
<defs>
<filter id="filter0_d" x="0.730927" y="3.72858" width="104.871" height="103.172" filterUnits="userSpaceOnUse" color-interpolation-filters="sRGB">
<feFlood flood-opacity="0" result="BackgroundImageFix"/>
<feColorMatrix in="SourceAlpha" type="matrix" values="0 0 0 0 0 0 0 0 0 0 0 0 0 0 0 0 0 0 127 0" result="hardAlpha"/>
<feOffset dy="4"/>
<feGaussianBlur stdDeviation="2"/>
<feComposite in2="hardAlpha" operator="out"/>
<feColorMatrix type="matrix" values="0 0 0 0 0 0 0 0 0 0 0 0 0 0 0 0 0 0 0.25 0"/>
<feBlend mode="normal" in2="BackgroundImageFix" result="effect1_dropShadow"/>
<feBlend mode="normal" in="SourceGraphic" in2="effect1_dropShadow" result="shape"/>
</filter>
<filter id="filter1_di" x="82.7342" y="5.19611" width="22.04" height="30.5" filterUnits="userSpaceOnUse" color-interpolation-filters="sRGB">
<feFlood flood-opacity="0" result="BackgroundImageFix"/>
<feColorMatrix in="SourceAlpha" type="matrix" values="0 0 0 0 0 0 0 0 0 0 0 0 0 0 0 0 0 0 127 0" result="hardAlpha"/>
<feOffset dy="4"/>
<feGaussianBlur stdDeviation="2"/>
<feComposite in2="hardAlpha" operator="out"/>
<feColorMatrix type="matrix" values="0 0 0 0 0 0 0 0 0 0 0 0 0 0 0 0 0 0 0.25 0"/>
<feBlend mode="normal" in2="BackgroundImageFix" result="effect1_dropShadow"/>
<feBlend mode="normal" in="SourceGraphic" in2="effect1_dropShadow" result="shape"/>
<feColorMatrix in="SourceAlpha" type="matrix" values="0 0 0 0 0 0 0 0 0 0 0 0 0 0 0 0 0 0 127 0" result="hardAlpha"/>
<feOffset dy="5"/>
<feGaussianBlur stdDeviation="10"/>
<feComposite in2="hardAlpha" operator="arithmetic" k2="-1" k3="1"/>
<feColorMatrix type="matrix" values="0 0 0 0 1 0 0 0 0 1 0 0 0 0 1 0 0 0 0.18 0"/>
<feBlend mode="normal" in2="shape" result="effect2_innerShadow"/>
</filter>
<filter id="filter2_di" x="58.0978" y="3.72858" width="26.3867" height="35.0352" filterUnits="userSpaceOnUse" color-interpolation-filters="sRGB">
<feFlood flood-opacity="0" result="BackgroundImageFix"/>
<feColorMatrix in="SourceAlpha" type="matrix" values="0 0 0 0 0 0 0 0 0 0 0 0 0 0 0 0 0 0 127 0" result="hardAlpha"/>
<feOffset dy="4"/>
<feGaussianBlur stdDeviation="2"/>
<feComposite in2="hardAlpha" operator="out"/>
<feColorMatrix type="matrix" values="0 0 0 0 0 0 0 0 0 0 0 0 0 0 0 0 0 0 0.25 0"/>
<feBlend mode="normal" in2="BackgroundImageFix" result="effect1_dropShadow"/>
<feBlend mode="normal" in="SourceGraphic" in2="effect1_dropShadow" result="shape"/>
<feColorMatrix in="SourceAlpha" type="matrix" values="0 0 0 0 0 0 0 0 0 0 0 0 0 0 0 0 0 0 127 0" result="hardAlpha"/>
<feOffset dy="5"/>
<feGaussianBlur stdDeviation="10"/>
<feComposite in2="hardAlpha" operator="arithmetic" k2="-1" k3="1"/>
<feColorMatrix type="matrix" values="0 0 0 0 1 0 0 0 0 1 0 0 0 0 1 0 0 0 0.18 0"/>
<feBlend mode="normal" in2="shape" result="effect2_innerShadow"/>
</filter>
<filter id="filter3_di" x="9.31409" y="72.1464" width="29.1989" height="33.4519" filterUnits="userSpaceOnUse" color-interpolation-filters="sRGB">
<feFlood flood-opacity="0" result="BackgroundImageFix"/>
<feColorMatrix in="SourceAlpha" type="matrix" values="0 0 0 0 0 0 0 0 0 0 0 0 0 0 0 0 0 0 127 0" result="hardAlpha"/>
<feOffset dy="4"/>
<feGaussianBlur stdDeviation="2"/>
<feComposite in2="hardAlpha" operator="out"/>
<feColorMatrix type="matrix" values="0 0 0 0 0 0 0 0 0 0 0 0 0 0 0 0 0 0 0.25 0"/>
<feBlend mode="normal" in2="BackgroundImageFix" result="effect1_dropShadow"/>
<feBlend mode="normal" in="SourceGraphic" in2="effect1_dropShadow" result="shape"/>
<feColorMatrix in="SourceAlpha" type="matrix" values="0 0 0 0 0 0 0 0 0 0 0 0 0 0 0 0 0 0 127 0" result="hardAlpha"/>
<feOffset dy="5"/>
<feGaussianBlur stdDeviation="10"/>
<feComposite in2="hardAlpha" operator="arithmetic" k2="-1" k3="1"/>
<feColorMatrix type="matrix" values="0 0 0 0 1 0 0 0 0 1 0 0 0 0 1 0 0 0 0.18 0"/>
<feBlend mode="normal" in2="shape" result="effect2_innerShadow"/>
</filter>
<filter id="filter4_di" x="65.9875" y="70.8101" width="22.2602" height="31.1152" filterUnits="userSpaceOnUse" color-interpolation-filters="sRGB">
<feFlood flood-opacity="0" result="BackgroundImageFix"/>
<feColorMatrix in="SourceAlpha" type="matrix" values="0 0 0 0 0 0 0 0 0 0 0 0 0 0 0 0 0 0 127 0" result="hardAlpha"/>
<feOffset dy="4"/>
<feGaussianBlur stdDeviation="2"/>
<feComposite in2="hardAlpha" operator="out"/>
<feColorMatrix type="matrix" values="0 0 0 0 0 0 0 0 0 0 0 0 0 0 0 0 0 0 0.25 0"/>
<feBlend mode="normal" in2="BackgroundImageFix" result="effect1_dropShadow"/>
<feBlend mode="normal" in="SourceGraphic" in2="effect1_dropShadow" result="shape"/>
<feColorMatrix in="SourceAlpha" type="matrix" values="0 0 0 0 0 0 0 0 0 0 0 0 0 0 0 0 0 0 127 0" result="hardAlpha"/>
<feOffset dy="5"/>
<feGaussianBlur stdDeviation="10"/>
<feComposite in2="hardAlpha" operator="arithmetic" k2="-1" k3="1"/>
<feColorMatrix type="matrix" values="0 0 0 0 1 0 0 0 0 1 0 0 0 0 1 0 0 0 0.18 0"/>
<feBlend mode="normal" in2="shape" result="effect2_innerShadow"/>
</filter>
<filter id="filter5_di" x="83.2022" y="55.4224" width="22.4" height="27.908" filterUnits="userSpaceOnUse" color-interpolation-filters="sRGB">
<feFlood flood-opacity="0" result="BackgroundImageFix"/>
<feColorMatrix in="SourceAlpha" type="matrix" values="0 0 0 0 0 0 0 0 0 0 0 0 0 0 0 0 0 0 127 0" result="hardAlpha"/>
<feOffset dy="4"/>
<feGaussianBlur stdDeviation="2"/>
<feComposite in2="hardAlpha" operator="out"/>
<feColorMatrix type="matrix" values="0 0 0 0 0 0 0 0 0 0 0 0 0 0 0 0 0 0 0.25 0"/>
<feBlend mode="normal" in2="BackgroundImageFix" result="effect1_dropShadow"/>
<feBlend mode="normal" in="SourceGraphic" in2="effect1_dropShadow" result="shape"/>
<feColorMatrix in="SourceAlpha" type="matrix" values="0 0 0 0 0 0 0 0 0 0 0 0 0 0 0 0 0 0 127 0" result="hardAlpha"/>
<feOffset dy="5"/>
<feGaussianBlur stdDeviation="10"/>
<feComposite in2="hardAlpha" operator="arithmetic" k2="-1" k3="1"/>
<feColorMatrix type="matrix" values="0 0 0 0 1 0 0 0 0 1 0 0 0 0 1 0 0 0 0.18 0"/>
<feBlend mode="normal" in2="shape" result="effect2_innerShadow"/>
</filter>
<filter id="filter6_di" x="28.2454" y="3.75348" width="32.3672" height="34.5031" filterUnits="userSpaceOnUse" color-interpolation-filters="sRGB">
<feFlood flood-opacity="0" result="BackgroundImageFix"/>
<feColorMatrix in="SourceAlpha" type="matrix" values="0 0 0 0 0 0 0 0 0 0 0 0 0 0 0 0 0 0 127 0" result="hardAlpha"/>
<feOffset dy="4"/>
<feGaussianBlur stdDeviation="2"/>
<feComposite in2="hardAlpha" operator="out"/>
<feColorMatrix type="matrix" values="0 0 0 0 0 0 0 0 0 0 0 0 0 0 0 0 0 0 0.25 0"/>
<feBlend mode="normal" in2="BackgroundImageFix" result="effect1_dropShadow"/>
<feBlend mode="normal" in="SourceGraphic" in2="effect1_dropShadow" result="shape"/>
<feColorMatrix in="SourceAlpha" type="matrix" values="0 0 0 0 0 0 0 0 0 0 0 0 0 0 0 0 0 0 127 0" result="hardAlpha"/>
<feOffset dy="5"/>
<feGaussianBlur stdDeviation="10"/>
<feComposite in2="hardAlpha" operator="arithmetic" k2="-1" k3="1"/>
<feColorMatrix type="matrix" values="0 0 0 0 1 0 0 0 0 1 0 0 0 0 1 0 0 0 0.18 0"/>
<feBlend mode="normal" in2="shape" result="effect2_innerShadow"/>
</filter>
<filter id="filter7_di" x="39.3162" y="72.0231" width="22.8696" height="33.2142" filterUnits="userSpaceOnUse" color-interpolation-filters="sRGB">
<feFlood flood-opacity="0" result="BackgroundImageFix"/>
<feColorMatrix in="SourceAlpha" type="matrix" values="0 0 0 0 0 0 0 0 0 0 0 0 0 0 0 0 0 0 127 0" result="hardAlpha"/>
<feOffset dy="4"/>
<feGaussianBlur stdDeviation="2"/>
<feComposite in2="hardAlpha" operator="out"/>
<feColorMatrix type="matrix" values="0 0 0 0 0 0 0 0 0 0 0 0 0 0 0 0 0 0 0.25 0"/>
<feBlend mode="normal" in2="BackgroundImageFix" result="effect1_dropShadow"/>
<feBlend mode="normal" in="SourceGraphic" in2="effect1_dropShadow" result="shape"/>
<feColorMatrix in="SourceAlpha" type="matrix" values="0 0 0 0 0 0 0 0 0 0 0 0 0 0 0 0 0 0 127 0" result="hardAlpha"/>
<feOffset dy="5"/>
<feGaussianBlur stdDeviation="10"/>
<feComposite in2="hardAlpha" operator="arithmetic" k2="-1" k3="1"/>
<feColorMatrix type="matrix" values="0 0 0 0 1 0 0 0 0 1 0 0 0 0 1 0 0 0 0.18 0"/>
<feBlend mode="normal" in2="shape" result="effect2_innerShadow"/>
</filter>
<filter id="filter8_di" x="37.7043" y="39.2709" width="26.62" height="29.63" filterUnits="userSpaceOnUse" color-interpolation-filters="sRGB">
<feFlood flood-opacity="0" result="BackgroundImageFix"/>
<feColorMatrix in="SourceAlpha" type="matrix" values="0 0 0 0 0 0 0 0 0 0 0 0 0 0 0 0 0 0 127 0" result="hardAlpha"/>
<feOffset dy="4"/>
<feGaussianBlur stdDeviation="2"/>
<feComposite in2="hardAlpha" operator="out"/>
<feColorMatrix type="matrix" values="0 0 0 0 0 0 0 0 0 0 0 0 0 0 0 0 0 0 0.25 0"/>
<feBlend mode="normal" in2="BackgroundImageFix" result="effect1_dropShadow"/>
<feBlend mode="normal" in="SourceGraphic" in2="effect1_dropShadow" result="shape"/>
<feColorMatrix in="SourceAlpha" type="matrix" values="0 0 0 0 0 0 0 0 0 0 0 0 0 0 0 0 0 0 127 0" result="hardAlpha"/>
<feOffset dy="5"/>
<feGaussianBlur stdDeviation="10"/>
<feComposite in2="hardAlpha" operator="arithmetic" k2="-1" k3="1"/>
<feColorMatrix type="matrix" values="0 0 0 0 1 0 0 0 0 1 0 0 0 0 1 0 0 0 0.18 0"/>
<feBlend mode="normal" in2="shape" result="effect2_innerShadow"/>
</filter>
<filter id="filter9_di" x="0.730927" y="3.87115" width="30.47" height="28.055" filterUnits="userSpaceOnUse" color-interpolation-filters="sRGB">
<feFlood flood-opacity="0" result="BackgroundImageFix"/>
<feColorMatrix in="SourceAlpha" type="matrix" values="0 0 0 0 0 0 0 0 0 0 0 0 0 0 0 0 0 0 127 0" result="hardAlpha"/>
<feOffset dy="4"/>
<feGaussianBlur stdDeviation="2"/>
<feComposite in2="hardAlpha" operator="out"/>
<feColorMatrix type="matrix" values="0 0 0 0 0 0 0 0 0 0 0 0 0 0 0 0 0 0 0.25 0"/>
<feBlend mode="normal" in2="BackgroundImageFix" result="effect1_dropShadow"/>
<feBlend mode="normal" in="SourceGraphic" in2="effect1_dropShadow" result="shape"/>
<feColorMatrix in="SourceAlpha" type="matrix" values="0 0 0 0 0 0 0 0 0 0 0 0 0 0 0 0 0 0 127 0" result="hardAlpha"/>
<feOffset dy="5"/>
<feGaussianBlur stdDeviation="10"/>
<feComposite in2="hardAlpha" operator="arithmetic" k2="-1" k3="1"/>
<feColorMatrix type="matrix" values="0 0 0 0 1 0 0 0 0 1 0 0 0 0 1 0 0 0 0.18 0"/>
<feBlend mode="normal" in2="shape" result="effect2_innerShadow"/>
</filter>
<filter id="filter10_di" x="83.4281" y="78.9202" width="21.932" height="27.98" filterUnits="userSpaceOnUse" color-interpolation-filters="sRGB">
<feFlood flood-opacity="0" result="BackgroundImageFix"/>
<feColorMatrix in="SourceAlpha" type="matrix" values="0 0 0 0 0 0 0 0 0 0 0 0 0 0 0 0 0 0 127 0" result="hardAlpha"/>
<feOffset dy="4"/>
<feGaussianBlur stdDeviation="2"/>
<feComposite in2="hardAlpha" operator="out"/>
<feColorMatrix type="matrix" values="0 0 0 0 0 0 0 0 0 0 0 0 0 0 0 0 0 0 0.25 0"/>
<feBlend mode="normal" in2="BackgroundImageFix" result="effect1_dropShadow"/>
<feBlend mode="normal" in="SourceGraphic" in2="effect1_dropShadow" result="shape"/>
<feColorMatrix in="SourceAlpha" type="matrix" values="0 0 0 0 0 0 0 0 0 0 0 0 0 0 0 0 0 0 127 0" result="hardAlpha"/>
<feOffset dy="5"/>
<feGaussianBlur stdDeviation="10"/>
<feComposite in2="hardAlpha" operator="arithmetic" k2="-1" k3="1"/>
<feColorMatrix type="matrix" values="0 0 0 0 1 0 0 0 0 1 0 0 0 0 1 0 0 0 0.18 0"/>
<feBlend mode="normal" in2="shape" result="effect2_innerShadow"/>
</filter>
<filter id="filter11_di" x="4.25278" y="41.799" width="22.976" height="29.024" filterUnits="userSpaceOnUse" color-interpolation-filters="sRGB">
<feFlood flood-opacity="0" result="BackgroundImageFix"/>
<feColorMatrix in="SourceAlpha" type="matrix" values="0 0 0 0 0 0 0 0 0 0 0 0 0 0 0 0 0 0 127 0" result="hardAlpha"/>
<feOffset dy="4"/>
<feGaussianBlur stdDeviation="2"/>
<feComposite in2="hardAlpha" operator="out"/>
<feColorMatrix type="matrix" values="0 0 0 0 0 0 0 0 0 0 0 0 0 0 0 0 0 0 0.25 0"/>
<feBlend mode="normal" in2="BackgroundImageFix" result="effect1_dropShadow"/>
<feBlend mode="normal" in="SourceGraphic" in2="effect1_dropShadow" result="shape"/>
<feColorMatrix in="SourceAlpha" type="matrix" values="0 0 0 0 0 0 0 0 0 0 0 0 0 0 0 0 0 0 127 0" result="hardAlpha"/>
<feOffset dy="5"/>
<feGaussianBlur stdDeviation="10"/>
<feComposite in2="hardAlpha" operator="arithmetic" k2="-1" k3="1"/>
<feColorMatrix type="matrix" values="0 0 0 0 1 0 0 0 0 1 0 0 0 0 1 0 0 0 0.18 0"/>
<feBlend mode="normal" in2="shape" result="effect2_innerShadow"/>
</filter>
<filter id="filter12_di" x="63.2233" y="38.5869" width="27.043" height="25.5517" filterUnits="userSpaceOnUse" color-interpolation-filters="sRGB">
<feFlood flood-opacity="0" result="BackgroundImageFix"/>
<feColorMatrix in="SourceAlpha" type="matrix" values="0 0 0 0 0 0 0 0 0 0 0 0 0 0 0 0 0 0 127 0" result="hardAlpha"/>
<feOffset dy="4"/>
<feGaussianBlur stdDeviation="2"/>
<feComposite in2="hardAlpha" operator="out"/>
<feColorMatrix type="matrix" values="0 0 0 0 0 0 0 0 0 0 0 0 0 0 0 0 0 0 0.25 0"/>
<feBlend mode="normal" in2="BackgroundImageFix" result="effect1_dropShadow"/>
<feBlend mode="normal" in="SourceGraphic" in2="effect1_dropShadow" result="shape"/>
<feColorMatrix in="SourceAlpha" type="matrix" values="0 0 0 0 0 0 0 0 0 0 0 0 0 0 0 0 0 0 127 0" result="hardAlpha"/>
<feOffset dy="5"/>
<feGaussianBlur stdDeviation="10"/>
<feComposite in2="hardAlpha" operator="arithmetic" k2="-1" k3="1"/>
<feColorMatrix type="matrix" values="0 0 0 0 1 0 0 0 0 1 0 0 0 0 1 0 0 0 0.18 0"/>
<feBlend mode="normal" in2="shape" result="effect2_innerShadow"/>
</filter>
</defs>
</svg>
